<?xml version="1.0" standalone="no"?><!DOCTYPE svg PUBLIC "-//W3C//DTD SVG 1.1//EN" "http://www.w3.org/Graphics/SVG/1.1/DTD/svg11.dtd"><svg t="1587400694232" class="icon" viewBox="0 0 1024 1024" version="1.1" xmlns="http://www.w3.org/2000/svg" p-id="3399" xmlns:xlink="http://www.w3.org/1999/xlink" width="256" height="256"><defs><style type="text/css"></style></defs><path d="M973.098693 344.595656c-0.26147-0.265102-0.526572-7.277581-0.802567-7.539052l7.793258-7.945782-7.793258 17.391386c-13.520177-13.276865-40.549637-26.604571-65.65802-27.392613l-24.193237-0.334101V115.863889c0-51.709322-28.166128-74.823995-79.374299-74.823995H219.273453c-51.219066 0-78.030634 23.111042-78.030634 74.823995l-1.350928 201.429942-23.906346-0.751726c-23.666665 1.35456-44.384531 12.107513-60.780878 27.810238l-9.05703-16.14214 7.70247 13.45481 1.034986 0.305048-16.719554-21.262594 0.417626-0.406731c17.750907-16.999181 40.778424-27.98092 65.73065-31.528923V115.86752C104.310184 51.978055 155.881507 0 219.273453 0h583.797117c63.388315 0 114.959638 51.978055 114.959638 115.86752v172.508457c26.62636 3.101325 51.073804 14.580583 69.736225 32.908903l1.013196 1.005933-15.673673 19.599355-0.007263 2.705488z" p-id="3400" fill="#ffffff"></path><path d="M104.30292 298.758514h35.58534v113.034929l-35.58534-6.743747zM883.846639 248.58896h34.238042v161.381456l-34.238042 4.049153-1.347297-165.430609z" p-id="3401" fill="#ffffff"></path><path d="M902.694267 1023.996368H121.262154C57.369058 1023.996368 5.391003 975.878628 5.391003 916.742832V392.72066c0-26.757095 11.025318-50.997542 32.770905-72.034982a11.047107 11.047107 0 0 1 15.49936 0.141629l442.28738 443.329629c4.190783 4.190783 10.299012 6.60938 16.723185 6.60938 6.445962 0 12.546928-2.418597 16.752237-6.623906l442.792162-442.7849a11.043475 11.043475 0 0 1 15.368625-0.246943c1.318245 1.241982 32.342385 30.80988 30.973299 71.806195v523.818807c0.018158 59.143059-51.970792 107.2608-115.863889 107.260799zM65.656204 392.735186v61.463605l-0.388574 449.978955c0 41.294101 41.036262 73.084493 88.158965 73.084494h712.098987c47.126334 0 89.50263-31.790393 89.50263-73.084494l-0.388574-449.978955c0-0.112577-0.007263-0.232418 0-0.352259-0.007263 0.352258 0-59.310109 0-59.310109l-415.029134 400.085398c-7.575367 7.324791-18.335583 11.522837-29.498898 11.522837-11.156053 0-21.901743-4.205309-29.495268-11.522837L65.656204 392.735186z" p-id="3402" fill="#ffffff"></path><path d="M418.375586 392.658924l78.263052 78.263051a18.720525 18.720525 0 0 0 13.276865 5.509028 18.70963 18.70963 0 0 0 13.269602-5.509028l78.263052-78.263051c0.530203-0.530203 1.027722-1.09309 1.481663-1.666872 27.058512-28.986853 26.441153-74.729575-1.757659-102.93565-24.639915-24.599968-62.607536-28.19518-91.151344-10.727532a73.618328 73.618328 0 0 0-39.267708-11.225052 73.611065 73.611065 0 0 0-52.402943 21.712903 73.611065 73.611065 0 0 0-21.712904 52.399312 73.621959 73.621959 0 0 0 21.088281 51.781953c0.221523 0.217892 0.42852 0.432152 0.650043 0.660938m0 0z" p-id="3403" fill="#ffffff"></path></svg>