<?xml version="1.0" standalone="no"?><!DOCTYPE svg PUBLIC "-//W3C//DTD SVG 1.1//EN" "http://www.w3.org/Graphics/SVG/1.1/DTD/svg11.dtd"><svg t="1586284303745" class="icon" viewBox="0 0 1024 1024" version="1.1" xmlns="http://www.w3.org/2000/svg" p-id="6515" xmlns:xlink="http://www.w3.org/1999/xlink" width="200" height="200"><defs><style type="text/css"></style></defs><path d="M895.4628 547.648149c1.128285-11.689852 1.82368-23.430881 1.82368-35.335673 0-11.905997-0.695394-23.652444-1.82368-35.33748l89.604742-70.838723c19.413849-15.874261 24.400821-43.223434 11.958979-64.830635l-95.555031-167.201134c-12.119733-21.233916-38.072698-31.425208-62.635476-21.985303l-104.994935 42.686987c-19.250085-13.839254-39.415321-25.687451-60.166977-35.394075l-15.924835-113.469115c-3.75513-24.55736-25.308145-43.05967-50.085864-43.05967H416.49735c-25.099828 0-46.17299 18.073032-50.143663 43.432956l-15.867638 113.095829c-20.80825 9.7578-40.96867 21.611416-60.221765 35.394075l-105.259847-42.851353c-22.686116-8.79087-50.144265 0.915753-62.259181 22.149067L27.186613 341.249043c-12.442444 21.770965-7.450053 49.120138 12.27868 65.153346L128.699157 476.974996c-1.129489 11.63386-1.825486 23.431483-1.825485 35.33748 0 11.904792 0.695997 23.698201 1.825485 35.335673L38.984237 618.488679c-19.247677 15.924835-24.240067 43.217413-11.797624 64.77404l95.609819 167.308303c12.170909 21.182138 38.718722 31.37042 62.580688 21.878736l104.993731-42.686987c19.304874 13.838049 39.470712 25.688053 60.165773 35.342899l15.925437 113.628062c3.918894 24.935462 24.991455 43.001871 50.035289 43.001871h191.115479c24.771698 0 46.274741-18.496891 50.192431-43.432955l15.868842-113.145802c20.751655-9.757198 40.916892-21.556025 60.166977-35.394075l105.26647 42.901325c5.896102 2.306542 12.06374 3.431817 18.393937 3.431817 18.015233 0 34.851607-9.757198 43.970004-25.580282l95.395481-167.087944c12.49362-21.556627 7.664391-48.9058-12.228708-65.367082l-89.175463-70.412456z m-36.463958 275.19921l-118.99133-48.424142c-8.897437-3.697933-18.983367-2.251152-26.542395 3.646155-23.488078 18.231979-48.581885 32.980363-74.642019 43.812262-8.74451 3.646155-14.907933 11.690454-16.254772 21.075571l-17.528155 125.208337-185.598081 2.738229-17.907462-127.946566c-1.288437-9.385116-7.50725-17.372219-16.24875-21.075571-25.845194-10.724127-50.996198-25.523687-74.642622-43.812262-4.772634-3.646155-10.566986-5.575197-16.410708-5.575197a26.518312 26.518312 0 0 0-10.081112 1.985637l-114.807524 49.494026-96.576749-163.770521 100.918298-79.680769c7.401285-5.845528 11.155211-15.178264 9.973342-24.506184-1.927838-14.376905-3.160884-28.904328-3.160884-43.703888 0-14.801366 1.233046-29.334208 3.109708-43.597321 1.233046-9.384514-2.52088-18.660655-9.973342-24.50498L73.734093 367.902822l91.427217-166.125831 118.884161 48.367547a26.742885 26.742885 0 0 0 26.541793-3.595581c23.544673-18.231377 48.746853-33.030335 74.806385-43.969403 8.7415-3.646155 14.852543-11.635666 16.196972-21.019578l14.906729-125.050594 188.221314-2.736422 17.907462 127.895991c1.290243 9.382708 7.508454 17.371617 16.248148 21.017772 25.953567 10.831898 51.103367 25.57968 74.698614 43.862234 7.615021 5.84613 17.696134 7.241736 26.542395 3.646757l114.808126-49.441044 96.633343 163.661546-100.973689 79.794561c-7.401887 5.844324-11.211806 15.120465-10.030539 24.448385 1.827894 14.371486 3.166303 28.903124 3.166303 43.70449 0 14.79956-1.289039 29.333606-3.166303 43.705093-1.181268 9.332736 2.628651 18.608877 10.030539 24.454405l99.8442 76.198378-91.428421 166.125831z m0 0" p-id="6516" fill="#ffffff"></path><path d="M512.159549 310.145944c-110.568929 0-200.498187 90.68185-200.498187 202.166532 0 111.426883 89.928657 202.159909 200.498187 202.159909 110.573143 0 200.447011-90.677034 200.447011-202.159909 0-111.484682-89.929861-202.166532-200.447011-202.166532z m0 350.701592c-80.969206 0-146.872736-66.599526-146.872735-148.53506 0-81.942156 65.90353-148.54108 146.872735-148.54108 80.973421 0 146.821559 66.655519 146.82156 148.54108 0.000602 81.879541-65.90353 148.53506-146.82156 148.53506z m0 0" p-id="6517" fill="#ffffff"></path></svg>