<?xml version="1.0" standalone="no"?><!DOCTYPE svg PUBLIC "-//W3C//DTD SVG 1.1//EN" "http://www.w3.org/Graphics/SVG/1.1/DTD/svg11.dtd"><svg t="1587223933802" class="icon" viewBox="0 0 1024 1024" version="1.1" xmlns="http://www.w3.org/2000/svg" p-id="740" width="32" height="32" xmlns:xlink="http://www.w3.org/1999/xlink"><defs><style type="text/css"></style></defs><path d="M849.2 6.3H174.8C81.7 6.3 6.3 81.7 6.3 174.8v674.3c0 93.1 75.4 168.6 168.6 168.6h674.3c93.1 0 168.6-75.4 168.6-168.6V175c0-93.1-75.5-168.7-168.6-168.7z m-81 632.8l7.9-44.9 47.3-30.5h42.2l-52 295h-42.2l44.1-250.3-47.3 30.7z m104.7-385.2v44h-42.7l-536.6 552h-159V297.3l-39.8-0.6v-42.8h158.9v401.2l397.4-401.2h221.8z" p-id="741" fill="#8942a8"></path></svg>