<?xml version="1.0" standalone="no"?><!DOCTYPE svg PUBLIC "-//W3C//DTD SVG 1.1//EN" "http://www.w3.org/Graphics/SVG/1.1/DTD/svg11.dtd"><svg t="1587223956543" class="icon" viewBox="0 0 1024 1024" version="1.1" xmlns="http://www.w3.org/2000/svg" p-id="1028" width="32" height="32" xmlns:xlink="http://www.w3.org/1999/xlink"><defs><style type="text/css"></style></defs><path d="M849.2 6.3H174.8C81.7 6.3 6.3 81.7 6.3 174.8v674.3c0 93.1 75.4 168.6 168.6 168.6h674.3c93.1 0 168.6-75.4 168.6-168.6V175c0-93.1-75.5-168.7-168.6-168.7z m23.7 247.6v44h-42.7l-536.6 552h-159V297.3l-39.8-0.6v-42.8h158.9v401.2l397.4-401.2h221.8zM711.4 818.8l140.5-144.1c5.4-5.8 9.5-11.2 12-16.2 1.9-4.7 3.2-9.1 4-13.3 2-11.1 0.2-20.7-5.2-28.9-5.7-8.3-15.1-12.5-28.2-12.7-11.6 0-21.9 3.7-30.9 11.1-9.3 7.4-15.8 17.9-19.6 31.4h-42.1c5.4-24.6 17.2-44.8 35.4-60.9 18.3-15.7 38.8-23.6 61.5-23.8 25.3 0.2 44.5 8.4 57.4 24.3 13.2 15.8 17.9 35.8 13.8 60.1-3.5 19.4-12.3 36.7-26.9 51.7L767.3 816.4H880l-7.4 42.2H704.3l7.1-39.8z" p-id="1029" fill="#8942a8"></path></svg>